<svg xmlns="http://www.w3.org/2000/svg" viewBox="0 0 64 64">
  <rect width="64" height="64" rx="16" fill="#F48991"/>
  <g fill="#fff">
    <rect x="12" y="14" width="7" height="24" rx="3.5"/>
    <circle cx="15.5" cy="9.5" r="3.5"/>
    <path d="M31 14c11.6 0 21 9.4 21 21S42.6 56 31 56c-4.7 0-9-1.5-12.5-4.1V56h-7V14h7v4.1A20.8 20.8 0 0 1 31 14Zm0 7c-7.7 0-14 6.3-14 14s6.3 14 14 14 14-6.3 14-14-6.3-14-14-14Z"/>
    <path d="M31 24c4.8 0 8.8 3.2 10 7.6-1.2 1.6-3.1 2.6-5.3 2.6-1 0-2-.2-2.9-.7a6.9 6.9 0 0 1-6.1 3.7c-2.4 0-4.6-1.2-5.9-3.2.4-5.6 4.9-10 10.2-10Z"/>
  </g>
</svg>
